<!--?xml version="1.0" encoding="utf-8"?-->
<!-- Generator: Adobe Illustrator 18.1.1, SVG Export Plug-In . SVG Version: 6.00 Build 0)  -->

<svg version="1.1" id="_x32_" xmlns="http://www.w3.org/2000/svg" xmlns:xlink="http://www.w3.org/1999/xlink" x="0px" y="0px" viewBox="0 0 512 512" style="width: 16px; height: 16px; opacity: 1;" xml:space="preserve">
<style type="text/css">
	.st0{fill:#4B4B4B;}
</style>
<g>
	<path class="st0" d="M497.616,214.676l-71.104-108.824c-11.248-17.216-30.416-27.592-50.976-27.592H136.464
		c-20.576,0-39.728,10.376-50.976,27.592L14.384,214.676C5.009,229.036,0,245.828,0,262.98v111.704
		c0,16.256,6.64,31.136,17.297,41.768c10.64,10.648,25.52,17.296,41.759,17.288h393.872c16.256,0.008,31.136-6.64,41.76-17.288
		C505.36,405.82,512,390.94,512,374.684V262.98C512,245.82,506.992,229.036,497.616,214.676z M45.888,235.252l71.088-108.832
		c4.304-6.576,11.632-10.544,19.488-10.544h239.072c7.856,0,15.184,3.968,19.472,10.536l71.104,108.832
		c0.576,0.88,1.008,1.84,1.52,2.752h-150.96l-3.36,10.416c-3.888,12.08-11.536,22.544-21.552,29.952
		c-10.032,7.416-22.304,11.776-35.76,11.784c-13.456-0.008-25.744-4.368-35.76-11.784c-10.016-7.408-17.664-17.872-21.568-29.952
		l-3.36-10.416H44.368C44.88,237.084,45.312,236.132,45.888,235.252z M474.384,374.684c-0.016,5.976-2.384,11.224-6.287,15.16
		c-3.936,3.912-9.184,6.272-15.168,6.28H59.056c-5.968-0.008-11.216-2.368-15.152-6.28c-3.904-3.936-6.272-9.184-6.288-15.16
		V268.092h136.593c6.416,13.704,16.079,25.552,28.112,34.464c14.976,11.104,33.632,17.696,53.68,17.688
		c20.048,0.008,38.704-6.584,53.68-17.688c12.016-8.912,21.68-20.76,28.096-34.464h136.608V374.684z" style="fill: rgb(75, 75, 75);"></path>
</g>
</svg>
